<?xml version="1.0" encoding="utf-8"?>
<!-- Generator: Adobe Illustrator 25.0.1, SVG Export Plug-In . SVG Version: 6.00 Build 0)  -->
<svg version="1.1" xmlns="http://www.w3.org/2000/svg" xmlns:xlink="http://www.w3.org/1999/xlink" x="0px" y="0px"
	 viewBox="0 0 78 78" style="enable-background:new 0 0 1958.68 675.12;" xml:space="preserve">
<style type="text/css">
	.st0{display:none;}
	.st1{display:inline;fill:#32384A;}
	.st2{fill:#FFF;}
	.st3{fill:none;}
	.st4{display:inline;fill:#BABCBE;}
</style>
<g id="BG" class="st0">
	<rect x="0" class="st1" width="1958.68" height="675.12"/>
</g>
<g id="Object">
            <g id="cog">
              <path id="Vector" d="M77.603 37.2931C77.5604 35.8053 77.4185 34.3344 77.2017 32.8957L69.5403 31.6261L66.943 24.3771L72.0485 18.5243C70.5002 15.9476 68.6578 13.576 66.5753 11.4432L59.6286 14.9309L53.26 10.6006L53.949 2.85363C51.3079 1.7401 48.5145 0.902693 45.6153 0.399475L42.0065 7.29356L34.3038 7.4742L30.3479 0.771082C27.3868 1.44591 24.5573 2.44976 21.902 3.75555L23.0374 11.4496L16.9152 16.1321L9.78146 13.0522C7.82287 15.2934 6.11588 17.7631 4.7121 20.4262L10.1401 25.9758L7.95319 33.3576L0.37173 35.066C0.234964 36.5937 0.176903 38.155 0.225933 39.7408C0.280123 41.1885 0.409147 42.6078 0.605264 44.0078L8.27059 45.2994L10.8433 52.5573L5.7043 58.396C7.25775 60.974 9.09247 63.3714 11.1749 65.5107L18.1358 62.0449L24.4915 66.3945L23.7715 74.1441C26.4978 75.2976 29.3725 76.166 32.3607 76.6769L35.9488 69.7661L43.6503 69.5532L47.6191 76.2473C50.5776 75.5595 53.4032 74.5402 56.0572 73.2292L54.8999 65.5391L61.0002 60.8295L68.1404 63.8901C70.099 61.6333 71.8021 59.1598 73.1942 56.4992L67.7339 50.9716L69.8938 43.5678L77.4804 41.8478C77.6056 40.3433 77.6572 38.8234 77.603 37.2931ZM55.6599 57.5844C45.1444 66.8216 29.1093 65.8371 19.8311 55.267C10.6046 44.7084 11.6278 28.6919 22.1755 19.4624C32.6794 10.18 48.7248 11.2109 57.9694 21.7411C67.2643 32.2919 66.1985 48.3419 55.6599 57.5844Z" fill="white" />
            </g>
            <g id="code">
              <path id="Vector_2" d="M17.2094 39.1625V37.8529C17.2094 37.1806 17.4803 36.6439 18.0209 36.24L28.5286 28.3434C28.8138 28.1008 29.1002 27.9795 29.3854 27.9795C29.7234 27.9795 30.0279 28.1472 30.2988 28.484C30.5685 28.8208 30.704 29.2311 30.704 29.7149C30.704 30.3472 30.5079 30.8117 30.1169 31.1072L20.2892 38.4929L30.1208 45.8347C30.5092 46.1586 30.704 46.636 30.704 47.2695C30.704 47.7547 30.5698 48.1663 30.2988 48.503C30.0292 48.8398 29.7247 49.0075 29.3854 49.0075C29.1209 49.0075 28.8344 48.8862 28.5286 48.645L18.017 40.7715C17.479 40.3986 17.2094 39.8606 17.2094 39.1625Z" fill="white" />
              <path id="Vector_3" d="M45.387 28.0802L34.5567 51.4075C34.3876 51.7585 34.118 51.934 33.7477 51.934C33.398 51.934 33.0729 51.783 32.7723 51.4798C32.4703 51.1778 32.3207 50.7908 32.3207 50.3198C32.3207 49.903 32.4265 49.4592 32.6381 48.9895L43.4748 25.6879C43.6542 25.3202 43.9329 25.1357 44.3122 25.1357C44.6502 25.1357 44.9689 25.2802 45.2683 25.5692C45.5689 25.8583 45.7185 26.2376 45.7185 26.7086C45.7198 27.1537 45.6089 27.6105 45.387 28.0802Z" fill="white" />
              <path id="Vector_4" d="M60.6246 37.8478V39.1626C60.6246 39.8503 60.3665 40.3896 59.8504 40.7806L49.3363 48.6489C49.0292 48.8914 48.7376 49.0114 48.4628 49.0114C48.1235 49.0114 47.8203 48.8501 47.5493 48.5276C47.2796 48.205 47.1442 47.7947 47.1442 47.2966C47.1442 46.6515 47.3442 46.1805 47.7454 45.8837L57.559 38.4968L47.7441 31.1575C47.3442 30.8337 47.1442 30.3485 47.1442 29.7008C47.1442 29.2014 47.2796 28.7911 47.5493 28.4673C47.819 28.1434 48.1235 27.9821 48.4628 27.9821C48.7273 27.9821 49.0189 28.1034 49.3363 28.346L59.8478 36.2323C60.3665 36.6207 60.6246 37.16 60.6246 37.8478Z" fill="white" />
            </g>
</g>
</svg>
