<svg id="Layer_1" data-name="Layer 1" xmlns="http://www.w3.org/2000/svg" viewBox="0 0 581 376.91"><defs><style>.cls-1{fill:#fff;}</style></defs><polygon id="Poly_18" data-name="Poly 18" class="cls-1" points="581 66.68 581 22.23 542.5 0 504 22.23 504 66.68 542.5 88.91 581 66.68"/><polygon id="Poly_17" data-name="Poly 17" class="cls-1" points="539 138.68 539 94.23 500.5 72 462 94.23 462 138.68 500.5 160.91 539 138.68"/><polygon id="Poly_16" data-name="Poly 16" class="cls-1" points="497 210.68 497 166.23 458.5 144 420 166.23 420 210.68 458.5 232.91 497 210.68"/><polygon id="Poly_15" data-name="Poly 15" class="cls-1" points="497 66.68 497 22.23 458.5 0 420 22.23 420 66.68 458.5 88.91 497 66.68"/><polygon id="Poly_14" data-name="Poly 14" class="cls-1" points="455 138.68 455 94.23 416.5 72 378 94.23 378 138.68 416.5 160.91 455 138.68"/><polygon id="Poly_13" data-name="Poly 13" class="cls-1" points="413 210.68 413 166.23 374.5 144 336 166.23 336 210.68 374.5 232.91 413 210.68"/><polygon id="Poly_12" data-name="Poly 12" class="cls-1" points="413 66.68 413 22.23 374.5 0 336 22.23 336 66.68 374.5 88.91 413 66.68"/><polygon id="Poly_11" data-name="Poly 11" class="cls-1" points="371 138.68 371 94.23 332.5 72 294 94.23 294 138.68 332.5 160.91 371 138.68"/><polygon id="Poly_10" data-name="Poly 10" class="cls-1" points="329 210.68 329 166.23 290.5 144 252 166.23 252 210.68 290.5 232.91 329 210.68"/><polygon id="Poly_9" data-name="Poly 9" class="cls-1" points="329 66.68 329 22.23 290.5 0 252 22.23 252 66.68 290.5 88.91 329 66.68"/><polygon id="Poly_8" data-name="Poly 8" class="cls-1" points="287 138.68 287 94.23 248.5 72 210 94.23 210 138.68 248.5 160.91 287 138.68"/><polygon id="Poly_7" data-name="Poly 7" class="cls-1" points="245 210.68 245 166.23 206.5 144 168 166.23 168 210.68 206.5 232.91 245 210.68"/><g id="Poly_6" data-name="Poly 6"><polygon class="cls-1" points="245 66.68 245 22.23 206.5 0 168 22.23 168 66.68 206.5 88.91 245 66.68"/></g><g id="Poly_5" data-name="Poly 5"><path class="cls-1" d="M177.5,89,210,107.74v37.52L177.5,164,145,145.26V107.74L177.5,89m0-6.93L139,104.27v44.46L177.5,171,216,148.73V104.27L177.5,82Z" transform="translate(-13 -10.04)"/></g><polygon id="Poly_4" data-name="Poly 4" class="cls-1" points="161 210.68 161 166.23 122.5 144 84 166.23 84 210.68 122.5 232.91 161 210.68"/><polygon id="Poly_4-2" data-name="Poly 4" class="cls-1" points="203 282.68 203 238.23 164.5 216 126 238.23 126 282.68 164.5 304.91 203 282.68"/><polygon id="Poly_4-3" data-name="Poly 4" class="cls-1" points="119 282.68 119 238.23 80.5 216 42 238.23 42 282.68 80.5 304.91 119 282.68"/><polygon id="Poly_4-4" data-name="Poly 4" class="cls-1" points="371 282.68 371 238.23 332.5 216 294 238.23 294 282.68 332.5 304.91 371 282.68"/><polygon id="Poly_4-5" data-name="Poly 4" class="cls-1" points="287 282.68 287 238.23 248.5 216 210 238.23 210 282.68 248.5 304.91 287 282.68"/><polygon id="Poly_4-6" data-name="Poly 4" class="cls-1" points="539 282.68 539 238.23 500.5 216 462 238.23 462 282.68 500.5 304.91 539 282.68"/><polygon id="Poly_4-7" data-name="Poly 4" class="cls-1" points="455 282.68 455 238.23 416.5 216 378 238.23 378 282.68 416.5 304.91 455 282.68"/><polygon id="Poly_10-2" data-name="Poly 10" class="cls-1" points="581 210.68 581 166.23 542.5 144 504 166.23 504 210.68 542.5 232.91 581 210.68"/><polygon id="Poly_3" data-name="Poly 3" class="cls-1" points="161 66.68 161 22.23 122.5 0 84 22.23 84 66.68 122.5 88.91 161 66.68"/><polygon id="Poly_2" data-name="Poly 2" class="cls-1" points="119 138.68 119 94.23 80.5 72 42 94.23 42 138.68 80.5 160.91 119 138.68"/><polygon id="Poly_1" data-name="Poly 1" class="cls-1" points="77 210.68 77 166.23 38.5 144 0 166.23 0 210.68 38.5 232.91 77 210.68"/><polygon id="Poly_16-2" data-name="Poly 16" class="cls-1" points="497 354.68 497 310.23 458.5 288 420 310.23 420 354.68 458.5 376.91 497 354.68"/><polygon id="Poly_13-2" data-name="Poly 13" class="cls-1" points="413 354.68 413 310.23 374.5 288 336 310.23 336 354.68 374.5 376.91 413 354.68"/><polygon id="Poly_10-3" data-name="Poly 10" class="cls-1" points="329 354.68 329 310.23 290.5 288 252 310.23 252 354.68 290.5 376.91 329 354.68"/><polygon id="Poly_7-2" data-name="Poly 7" class="cls-1" points="245 354.68 245 310.23 206.5 288 168 310.23 168 354.68 206.5 376.91 245 354.68"/><polygon id="Poly_4-8" data-name="Poly 4" class="cls-1" points="161 354.68 161 310.23 122.5 288 84 310.23 84 354.68 122.5 376.91 161 354.68"/><polygon id="Poly_10-4" data-name="Poly 10" class="cls-1" points="581 354.68 581 310.23 542.5 288 504 310.23 504 354.68 542.5 376.91 581 354.68"/><polygon id="Poly_1-2" data-name="Poly 1" class="cls-1" points="77 354.68 77 310.23 38.5 288 0 310.23 0 354.68 38.5 376.91 77 354.68"/></svg>