<?xml version="1.0" encoding="utf-8"?>
<!-- Generator: Adobe Illustrator 25.0.1, SVG Export Plug-In . SVG Version: 6.00 Build 0)  -->
<svg version="1.1" id="Layer_1" xmlns="http://www.w3.org/2000/svg" xmlns:xlink="http://www.w3.org/1999/xlink" x="0px" y="0px"
	 viewBox="0 0 397.3 253.9" style="enable-background:new 0 0 397.3 253.9;" xml:space="preserve">
<style type="text/css">
	.st0{fill:#FFFFFF;}
</style>
<polygon id="Poly_11" class="st0" points="384,148.7 384,104.3 345.5,82 307,104.3 307,148.7 345.5,171 "/>
<polygon id="Poly_10" class="st0" points="342,220.7 342,176.3 303.5,154 265,176.3 265,220.7 303.5,243 "/>
<polygon id="Poly_9" class="st0" points="342,76.7 342,32.3 303.5,10 265,32.3 265,76.7 303.5,99 "/>
<polygon id="Poly_8" class="st0" points="300,148.7 300,104.3 261.5,82 223,104.3 223,148.7 261.5,171 "/>
<polygon id="Poly_7" class="st0" points="258,220.7 258,176.3 219.5,154 181,176.3 181,220.7 219.5,243 "/>
<polygon id="Poly_6" class="st0" points="258,76.7 258,32.3 219.5,10 181,32.3 181,76.7 219.5,99 "/>
<g id="Poly_5">
	<path class="st0" d="M177.5,89l32.5,18.8v37.5L177.5,164L145,145.3v-37.5L177.5,89 M177.5,82L139,104.3v44.5l38.5,22.2l38.5-22.2
		v-44.5L177.5,82L177.5,82z"/>
</g>
<polygon id="Poly_4" class="st0" points="174,220.7 174,176.3 135.5,154 97,176.3 97,220.7 135.5,243 "/>
<polygon id="Poly_3" class="st0" points="174,76.7 174,32.3 135.5,10 97,32.3 97,76.7 135.5,99 "/>
<polygon id="Poly_2" class="st0" points="132,148.7 132,104.3 93.5,82 55,104.3 55,148.7 93.5,171 "/>
<polygon id="Poly_1" class="st0" points="90,220.7 90,176.3 51.5,154 13,176.3 13,220.7 51.5,243 "/>
</svg>
