<?xml version="1.0" encoding="utf-8"?>
<!-- Generator: Adobe Illustrator 25.0.1, SVG Export Plug-In . SVG Version: 6.00 Build 0)  -->
<svg version="1.1" xmlns="http://www.w3.org/2000/svg" xmlns:xlink="http://www.w3.org/1999/xlink" x="0px" y="0px"
	 viewBox="0 0 1958.68 675.12" style="enable-background:new 0 0 1958.68 675.12;" xml:space="preserve">
<style type="text/css">
	.st0{display:none;}
	.st1{display:inline;fill:#32384A;}
	.st2{fill:#FFF;}
	.st3{fill:none;}
	.st4{display:inline;fill:#BABCBE;}
</style>
<g id="BG" class="st0">
	<rect x="0" class="st1" width="1958.68" height="675.12"/>
</g>
<g id="Object">
	<path class="st2" d="M627.68,321.65c-0.33-11.53-1.43-22.93-3.11-34.08l-59.38-9.84l-20.13-56.18l39.57-45.36
		c-12-19.97-26.28-38.35-42.42-54.88l-53.84,27.03l-49.36-33.56l5.34-60.04c-20.47-8.63-42.12-15.12-64.59-19.02l-27.97,53.43
		l-59.7,1.4l-30.66-51.95c-22.95,5.23-44.88,13.01-65.46,23.13l8.8,59.63l-47.45,36.29l-55.29-23.87
		c-15.18,17.37-28.41,36.51-39.29,57.15l42.07,43.01l-16.95,57.21l-58.76,13.24c-1.06,11.84-1.51,23.94-1.13,36.23
		c0.42,11.22,1.42,22.22,2.94,33.07l59.41,10.01l19.94,56.25l-39.83,45.25c12.04,19.98,26.26,38.56,42.4,55.14l53.95-26.86
		l49.26,33.71l-5.58,60.06c21.13,8.94,43.41,15.67,66.57,19.63l27.81-53.56l59.69-1.65l30.76,51.88
		c22.93-5.33,44.83-13.23,65.4-23.39l-8.97-59.6l47.28-36.5l55.34,23.72c15.18-17.49,28.38-36.66,39.17-57.28l-42.32-42.84
		l16.74-57.38l58.8-13.33C627.7,345.29,628.1,333.51,627.68,321.65z M457.61,478.91c-81.5,71.59-205.78,63.96-277.69-17.96
		c-71.51-81.83-63.58-205.96,18.17-277.49c81.41-71.94,205.77-63.95,277.42,17.66C547.55,282.89,539.29,407.28,457.61,478.91z"/>
	<g>
		<path class="st2" d="M159.6,336.14v-10.15c0-5.21,2.1-9.37,6.29-12.5l81.44-61.2c2.21-1.88,4.43-2.82,6.64-2.82
			c2.62,0,4.98,1.3,7.08,3.91c2.09,2.61,3.14,5.79,3.14,9.54c0,4.9-1.52,8.5-4.55,10.79l-76.17,57.24l76.2,56.9
			c3.01,2.51,4.52,6.21,4.52,11.12c0,3.76-1.04,6.95-3.14,9.56c-2.09,2.61-4.45,3.91-7.08,3.91c-2.05,0-4.27-0.94-6.64-2.81
			l-81.47-61.02C161.69,345.72,159.6,341.55,159.6,336.14z"/>
		<path class="st2" d="M377.99,250.25l-83.94,180.79c-1.31,2.72-3.4,4.08-6.27,4.08c-2.71,0-5.23-1.17-7.56-3.52
			c-2.34-2.34-3.5-5.34-3.5-8.99c0-3.23,0.82-6.67,2.46-10.31l83.99-180.59c1.39-2.85,3.55-4.28,6.49-4.28
			c2.62,0,5.09,1.12,7.41,3.36c2.33,2.24,3.49,5.18,3.49,8.83C380.57,243.07,379.71,246.61,377.99,250.25z"/>
		<path class="st2" d="M496.09,325.95v10.19c0,5.33-2,9.51-6,12.54l-81.49,60.98c-2.38,1.88-4.64,2.81-6.77,2.81
			c-2.63,0-4.98-1.25-7.08-3.75c-2.09-2.5-3.14-5.68-3.14-9.54c0-5,1.55-8.65,4.66-10.95l76.06-57.25l-76.07-56.88
			c-3.1-2.51-4.65-6.27-4.65-11.29c0-3.87,1.05-7.05,3.14-9.56c2.09-2.51,4.45-3.76,7.08-3.76c2.05,0,4.31,0.94,6.77,2.82
			l81.47,61.12C494.09,316.44,496.09,320.62,496.09,325.95z"/>
	</g>
	<g id="Name">
		<g>
			<rect x="625.76" y="433.04" class="st3" width="1259.6" height="112.8"/>
			<path class="st2" d="M715.64,434.54c0-0.5,0.1-0.87,0.3-1.12c0.2-0.25,0.6-0.38,1.2-0.38h79.2c0.6,0,1,0.13,1.2,0.38
				c0.2,0.25,0.3,0.63,0.3,1.12v6.15c0,0.9-0.5,1.35-1.5,1.35h-31.05c-1.1,0-1.65,0.45-1.65,1.35v99.15c0,1.2-0.5,1.8-1.5,1.8h-8.1
				c-1.1,0-1.65-0.6-1.65-1.8v-99.15c0-0.9-0.5-1.35-1.5-1.35h-33.75c-1,0-1.5-0.45-1.5-1.35V434.54z"/>
			<path class="st2" d="M862.34,491.09c-0.8,0-1.2,0.4-1.2,1.2v50.25c0,1.2-0.65,1.8-1.95,1.8h-7.5c-0.7,0-1.18-0.15-1.43-0.45
				c-0.25-0.3-0.38-0.75-0.38-1.35v-107.7c0-1.2,0.55-1.8,1.65-1.8h8.1c1,0,1.5,0.6,1.5,1.8v45.45c0,1.1,0.55,1.65,1.65,1.65h52.8
				c1,0,1.5-0.5,1.5-1.5v-45.75c0-1.1,0.45-1.65,1.35-1.65h8.25c1.1,0,1.65,0.6,1.65,1.8v107.7c0,0.6-0.13,1.05-0.38,1.35
				c-0.25,0.3-0.73,0.45-1.42,0.45h-7.5c-1.3,0-1.95-0.6-1.95-1.8v-50.1c0-0.9-0.45-1.35-1.35-1.35H862.34z"/>
			<path class="st2" d="M991.04,433.04h65.25c0.9,0,1.35,0.45,1.35,1.35l-0.15,6.15c0,1-0.5,1.5-1.5,1.5h-53.55
				c-1.2,0-1.8,0.55-1.8,1.65v38.55c0,1,0.55,1.5,1.65,1.5h40.65c0.9,0,1.35,0.45,1.35,1.35v6.3c0,0.4-0.08,0.7-0.22,0.9
				c-0.15,0.2-0.53,0.3-1.12,0.3h-40.8c-1,0-1.5,0.5-1.5,1.5v39.75c0,1,0.5,1.5,1.5,1.5h55.95c1.1,0,1.65,0.45,1.65,1.35v6.3
				c0,0.4-0.13,0.73-0.38,0.97c-0.25,0.25-0.63,0.38-1.12,0.38h-67.05c-1.2,0-1.8-0.6-1.8-1.8v-107.7
				C989.39,433.64,989.94,433.04,991.04,433.04z"/>
			<path class="st2" d="M1229.91,433.94c4.55,1.6,8.65,3.8,12.3,6.6c3.65,2.8,6.65,6.03,9,9.67c2.35,3.65,3.77,7.53,4.28,11.62
				c0.1,0.6,0.1,1.03,0,1.28c-0.1,0.25-0.45,0.38-1.05,0.38l-8.7,0.75c-0.4,0.1-0.7,0.03-0.9-0.23c-0.2-0.25-0.35-0.62-0.45-1.12
				c-1.6-6.6-4.9-11.97-9.9-16.12c-5-4.15-11.1-6.22-18.3-6.22c-11.1,0-19.63,4.08-25.57,12.22c-5.95,8.15-8.93,20.23-8.93,36.23
				c0,15.5,2.95,27.3,8.85,35.4c5.9,8.1,14.8,12.15,26.7,12.15c7.3,0,13.4-1.77,18.3-5.33c4.9-3.55,8.85-9.17,11.85-16.88
				c0.2-0.4,0.65-0.55,1.35-0.45l7.35,1.95c0.2,0.1,0.38,0.25,0.53,0.45c0.15,0.2,0.17,0.6,0.07,1.2c-0.9,3-2.2,5.9-3.9,8.7
				c-1.7,2.8-3.75,5.4-6.15,7.8c-2.4,2.4-5.15,4.5-8.25,6.3c-3.1,1.8-6.48,3.18-10.12,4.12c-3.65,0.95-7.58,1.42-11.77,1.42
				c-9.7,0-18.05-2.27-25.05-6.83c-7-4.55-12.35-11.07-16.05-19.58c-3.7-8.5-5.55-18.7-5.55-30.6c0-12,1.85-22.28,5.55-30.83
				c3.7-8.55,8.97-15.1,15.83-19.65c6.85-4.55,15.08-6.83,24.67-6.83C1220.69,431.54,1225.36,432.35,1229.91,433.94z"/>
			<path class="st2" d="M1326.66,539.32c-6.95-4.35-12.3-10.75-16.05-19.2c-3.75-8.45-5.62-18.72-5.62-30.83
				c0-12.4,1.9-22.9,5.7-31.5c3.8-8.6,9.2-15.12,16.2-19.58c7-4.45,15.3-6.67,24.9-6.67c9.6,0,17.85,2.23,24.75,6.67
				c6.9,4.45,12.23,10.93,15.98,19.42c3.75,8.5,5.62,18.95,5.62,31.35c0,12.2-1.85,22.53-5.55,30.97
				c-3.7,8.45-9.05,14.88-16.05,19.28c-7,4.4-15.3,6.6-24.9,6.6C1341.94,545.84,1333.61,543.67,1326.66,539.32z M1377.66,524.99
				c5.75-7.8,8.62-19.8,8.62-36c0-16.4-2.92-28.58-8.77-36.53c-5.85-7.95-14.43-11.92-25.73-11.92c-11.5,0-20.2,4-26.1,12
				c-5.9,8-8.85,20.15-8.85,36.45c0,16.2,2.97,28.2,8.93,36c5.95,7.8,14.67,11.7,26.17,11.7
				C1363.34,536.69,1371.91,532.79,1377.66,524.99z"/>
			<path class="st2" d="M1459.86,433.04c1.95,0,4.12,0.03,6.53,0.08c2.4,0.05,4.6,0.07,6.6,0.07c2,0,3.35,0,4.05,0
				c13.9,0.1,25.12,2.23,33.67,6.38c8.55,4.15,14.8,10.23,18.75,18.23c3.95,8,5.92,17.95,5.92,29.85c0,12.8-2.17,23.4-6.53,31.8
				c-4.35,8.4-10.95,14.65-19.8,18.75c-8.85,4.1-20.13,6.15-33.83,6.15h-19.2c-1.2,0-1.8-0.65-1.8-1.95V434.84
				c0-0.6,0.15-1.05,0.45-1.35c0.3-0.3,0.8-0.45,1.5-0.45C1456.68,433.04,1457.91,433.04,1459.86,433.04z M1465.48,444.14v89.85
				c0,1,0.6,1.5,1.8,1.5h6.45c11.8,0,21.35-1.52,28.65-4.58c7.3-3.05,12.65-8.03,16.05-14.92c3.4-6.9,5.1-16,5.1-27.3
				c0-12.2-1.78-21.65-5.33-28.35c-3.55-6.7-8.95-11.42-16.2-14.17c-7.25-2.75-16.48-4.12-27.67-4.12h-7.35
				C1465.98,442.04,1465.48,442.74,1465.48,444.14z"/>
			<path class="st2" d="M1592.83,433.04h65.25c0.9,0,1.35,0.45,1.35,1.35l-0.15,6.15c0,1-0.5,1.5-1.5,1.5h-53.55
				c-1.2,0-1.8,0.55-1.8,1.65v38.55c0,1,0.55,1.5,1.65,1.5h40.65c0.9,0,1.35,0.45,1.35,1.35v6.3c0,0.4-0.08,0.7-0.22,0.9
				c-0.15,0.2-0.53,0.3-1.12,0.3h-40.8c-1,0-1.5,0.5-1.5,1.5v39.75c0,1,0.5,1.5,1.5,1.5h55.95c1.1,0,1.65,0.45,1.65,1.35v6.3
				c0,0.4-0.13,0.73-0.38,0.97c-0.25,0.25-0.63,0.38-1.12,0.38h-67.05c-1.2,0-1.8-0.6-1.8-1.8v-107.7
				C1591.18,433.64,1591.73,433.04,1592.83,433.04z"/>
			<path class="st2" d="M1790.98,543.52c-0.3,0.55-0.75,0.83-1.35,0.83h-8.25c-0.9,0-1.6-0.55-2.1-1.65l-20.25-48.45
				c-0.4-1.1-1.5-1.65-3.3-1.65h-28.35c-0.7,0-1.18,0.15-1.43,0.45c-0.25,0.3-0.38,0.7-0.38,1.2v48c0,1.4-0.65,2.1-1.95,2.1h-7.35
				c-0.8,0-1.33-0.15-1.58-0.45c-0.25-0.3-0.38-0.75-0.38-1.35v-107.7c0-1.2,0.55-1.8,1.65-1.8h40.5c11.4,0,20.25,2.38,26.55,7.12
				c6.3,4.75,9.45,11.83,9.45,21.22c0,5.8-1.1,10.68-3.3,14.62c-2.2,3.95-5.03,7.08-8.48,9.38c-3.45,2.3-6.93,3.95-10.42,4.95
				c-0.7,0.1-0.9,0.55-0.6,1.35l21.45,50.1C1791.33,542.39,1791.28,542.97,1790.98,543.52z M1773.51,478.87
				c4.85-3.35,7.27-8.78,7.27-16.28c0-7.1-2.1-12.35-6.3-15.75c-4.2-3.4-10.35-5.1-18.45-5.1h-28.5c-1.3,0-1.95,0.45-1.95,1.35
				v39.15c0,1.1,0.45,1.65,1.35,1.65h24.9C1761.43,483.89,1768.66,482.22,1773.51,478.87z"/>
		</g>
		<g>
			<rect x="578.29" y="116.72" class="st3" width="1354.55" height="304.3"/>
			<path class="st2" d="M952.73,137.03L820.11,407.15c-2.08,4.17-5.18,7.52-9.28,10.06s-8.63,3.81-13.57,3.81
				c-4.82,0-9.28-1.27-13.38-3.81s-7.26-5.89-9.47-10.06L641.99,137.03h56.84l98.44,201.76l98.83-201.76H952.73z"/>
			<path class="st2" d="M1170.31,347.19c0,7.03-1.24,14.62-3.71,22.75c-2.47,8.14-6.48,15.69-12.01,22.66
				c-5.54,6.97-12.76,12.79-21.68,17.48c-8.92,4.69-19.76,7.03-32.52,7.03h-91.6c-7.03,0-14.62-1.24-22.75-3.71
				c-8.14-2.47-15.69-6.48-22.66-12.01c-6.97-5.53-12.79-12.76-17.48-21.68c-4.69-8.92-7.03-19.76-7.03-32.52
				c0-7.03,1.24-14.65,3.71-22.85c2.47-8.2,6.48-15.79,12.01-22.75c5.53-6.96,12.76-12.79,21.68-17.48
				c8.92-4.69,19.76-7.03,32.52-7.03h91.6v48.44h-91.6c-6.9,0-12.24,2.12-16.02,6.35c-3.78,4.23-5.66,9.47-5.66,15.72
				c0,6.64,2.18,11.82,6.54,15.53c4.36,3.71,9.54,5.57,15.53,5.57h91.21c6.9,0,12.24-2.08,16.02-6.25
				c3.78-4.17,5.66-9.38,5.66-15.62v-70.9c0-6.64-2.05-11.91-6.15-15.82s-9.28-5.86-15.53-5.86H988.86v-48.24h111.52
				c7.03,0,14.62,1.24,22.75,3.71c8.14,2.48,15.69,6.48,22.66,12.01c6.96,5.54,12.79,12.76,17.48,21.68
				c4.69,8.92,7.03,19.76,7.03,32.52V347.19z"/>
			<path class="st2" d="M1306.44,417.11h-22.66c-7.29,0-15.07-1.24-23.34-3.71c-8.27-2.47-15.99-6.54-23.14-12.21
				c-7.16-5.66-13.09-13.02-17.77-22.07c-4.69-9.05-7.03-20.15-7.03-33.3v-229.1h50.78v229.1c0,6.25,1.95,11.23,5.86,14.94
				s8.79,5.57,14.65,5.57h22.66V417.11z"/>
			<path class="st2" d="M1570.7,345.82c0,8.72-1.11,16.57-3.32,23.54c-2.22,6.97-5.15,13.09-8.79,18.36
				c-3.65,5.27-7.88,9.77-12.7,13.48c-4.82,3.71-9.86,6.74-15.14,9.08s-10.61,4.07-16.02,5.18c-5.4,1.11-10.52,1.66-15.33,1.66
				h-91.6c-8.72,0-16.54-1.1-23.44-3.32c-6.9-2.21-12.99-5.18-18.26-8.89s-9.77-7.97-13.48-12.79c-3.71-4.82-6.74-9.86-9.08-15.14
				s-4.07-10.61-5.18-16.02c-1.11-5.4-1.66-10.45-1.66-15.14v-68.75c0-13.02,2.37-24.05,7.13-33.11
				c4.75-9.05,10.67-16.41,17.77-22.07c7.1-5.66,14.81-9.73,23.14-12.21c8.33-2.47,16.02-3.71,23.05-3.71h91.6v50.78h-91.21
				c-6.77,0-11.91,1.73-15.43,5.18c-3.52,3.45-5.27,8.5-5.27,15.14v68.36c0,6.9,1.72,12.11,5.18,15.62
				c3.45,3.52,8.5,5.27,15.14,5.27h91.6c6.9,0,12.04-1.76,15.43-5.27c3.38-3.52,5.08-8.59,5.08-15.23v-229.1h50.78V345.82z"/>
			<path class="st2" d="M1848.82,345.82c0,8.72-1.11,16.57-3.32,23.54c-2.22,6.97-5.15,13.09-8.79,18.36
				c-3.65,5.27-7.88,9.77-12.7,13.48c-4.82,3.71-9.86,6.74-15.14,9.08s-10.61,4.07-16.02,5.18c-5.4,1.11-10.52,1.66-15.33,1.66
				h-91.6c-7.03,0-14.72-1.24-23.05-3.71c-8.33-2.47-16.05-6.54-23.14-12.21c-7.1-5.66-13.02-13.02-17.77-22.07
				c-4.75-9.05-7.13-20.15-7.13-33.3v-68.75c0-13.02,2.37-24.05,7.13-33.11c4.75-9.05,10.67-16.41,17.77-22.07
				c7.1-5.66,14.81-9.73,23.14-12.21c8.33-2.47,16.02-3.71,23.05-3.71h91.6c13.02,0,24.09,2.34,33.2,7.03
				c9.11,4.69,16.47,10.58,22.07,17.68c5.6,7.1,9.67,14.81,12.21,23.14c2.54,8.33,3.81,16.08,3.81,23.24V345.82z M1798.04,277.46
				c0-7.03-1.76-12.24-5.27-15.62c-3.52-3.38-8.59-5.08-15.23-5.08h-91.21c-6.77,0-11.91,1.73-15.43,5.18
				c-3.52,3.45-5.27,8.5-5.27,15.14v68.75c0,6.64,1.76,11.72,5.27,15.23s8.66,5.27,15.43,5.27h91.21c6.9,0,12.04-1.76,15.43-5.27
				c3.38-3.52,5.08-8.59,5.08-15.23V277.46z"/>
		</g>
	</g>
	<g id="THE_CODER_outlines" class="st0">
		<path class="st4" d="M715.64,434.54c0-0.5,0.1-0.87,0.3-1.12c0.2-0.25,0.6-0.38,1.2-0.38h79.2c0.6,0,1,0.13,1.2,0.38
			c0.2,0.25,0.3,0.63,0.3,1.12v6.15c0,0.9-0.5,1.35-1.5,1.35h-31.05c-1.1,0-1.65,0.45-1.65,1.35v99.15c0,1.2-0.5,1.8-1.5,1.8h-8.1
			c-1.1,0-1.65-0.6-1.65-1.8v-99.15c0-0.9-0.5-1.35-1.5-1.35h-33.75c-1,0-1.5-0.45-1.5-1.35V434.54z"/>
		<path class="st4" d="M862.34,491.09c-0.8,0-1.2,0.4-1.2,1.2v50.25c0,1.2-0.65,1.8-1.95,1.8h-7.5c-0.7,0-1.18-0.15-1.43-0.45
			c-0.25-0.3-0.38-0.75-0.38-1.35v-107.7c0-1.2,0.55-1.8,1.65-1.8h8.1c1,0,1.5,0.6,1.5,1.8v45.45c0,1.1,0.55,1.65,1.65,1.65h52.8
			c1,0,1.5-0.5,1.5-1.5v-45.75c0-1.1,0.45-1.65,1.35-1.65h8.25c1.1,0,1.65,0.6,1.65,1.8v107.7c0,0.6-0.13,1.05-0.38,1.35
			c-0.25,0.3-0.73,0.45-1.42,0.45h-7.5c-1.3,0-1.95-0.6-1.95-1.8v-50.1c0-0.9-0.45-1.35-1.35-1.35H862.34z"/>
		<path class="st4" d="M991.04,433.04h65.25c0.9,0,1.35,0.45,1.35,1.35l-0.15,6.15c0,1-0.5,1.5-1.5,1.5h-53.55
			c-1.2,0-1.8,0.55-1.8,1.65v38.55c0,1,0.55,1.5,1.65,1.5h40.65c0.9,0,1.35,0.45,1.35,1.35v6.3c0,0.4-0.08,0.7-0.22,0.9
			c-0.15,0.2-0.53,0.3-1.12,0.3h-40.8c-1,0-1.5,0.5-1.5,1.5v39.75c0,1,0.5,1.5,1.5,1.5h55.95c1.1,0,1.65,0.45,1.65,1.35v6.3
			c0,0.4-0.13,0.73-0.38,0.97c-0.25,0.25-0.63,0.38-1.12,0.38h-67.05c-1.2,0-1.8-0.6-1.8-1.8v-107.7
			C989.39,433.64,989.94,433.04,991.04,433.04z"/>
		<path class="st4" d="M1229.91,433.94c4.55,1.6,8.65,3.8,12.3,6.6c3.65,2.8,6.65,6.03,9,9.67c2.35,3.65,3.77,7.53,4.28,11.62
			c0.1,0.6,0.1,1.03,0,1.28c-0.1,0.25-0.45,0.38-1.05,0.38l-8.7,0.75c-0.4,0.1-0.7,0.03-0.9-0.23c-0.2-0.25-0.35-0.62-0.45-1.12
			c-1.6-6.6-4.9-11.97-9.9-16.12c-5-4.15-11.1-6.22-18.3-6.22c-11.1,0-19.63,4.08-25.57,12.22c-5.95,8.15-8.93,20.23-8.93,36.23
			c0,15.5,2.95,27.3,8.85,35.4c5.9,8.1,14.8,12.15,26.7,12.15c7.3,0,13.4-1.77,18.3-5.33c4.9-3.55,8.85-9.17,11.85-16.88
			c0.2-0.4,0.65-0.55,1.35-0.45l7.35,1.95c0.2,0.1,0.38,0.25,0.53,0.45c0.15,0.2,0.17,0.6,0.07,1.2c-0.9,3-2.2,5.9-3.9,8.7
			c-1.7,2.8-3.75,5.4-6.15,7.8c-2.4,2.4-5.15,4.5-8.25,6.3c-3.1,1.8-6.48,3.18-10.12,4.12c-3.65,0.95-7.58,1.42-11.77,1.42
			c-9.7,0-18.05-2.27-25.05-6.83c-7-4.55-12.35-11.07-16.05-19.58c-3.7-8.5-5.55-18.7-5.55-30.6c0-12,1.85-22.28,5.55-30.83
			c3.7-8.55,8.97-15.1,15.83-19.65c6.85-4.55,15.08-6.83,24.67-6.83C1220.69,431.54,1225.36,432.34,1229.91,433.94z"/>
		<path class="st4" d="M1326.66,539.32c-6.95-4.35-12.3-10.75-16.05-19.2c-3.75-8.45-5.62-18.72-5.62-30.83
			c0-12.4,1.9-22.9,5.7-31.5c3.8-8.6,9.2-15.12,16.2-19.58c7-4.45,15.3-6.67,24.9-6.67c9.6,0,17.85,2.23,24.75,6.67
			c6.9,4.45,12.23,10.93,15.98,19.42c3.75,8.5,5.62,18.95,5.62,31.35c0,12.2-1.85,22.53-5.55,30.97
			c-3.7,8.45-9.05,14.88-16.05,19.28c-7,4.4-15.3,6.6-24.9,6.6C1341.94,545.84,1333.61,543.67,1326.66,539.32z M1377.66,524.99
			c5.75-7.8,8.62-19.8,8.62-36c0-16.4-2.92-28.58-8.77-36.53c-5.85-7.95-14.43-11.92-25.73-11.92c-11.5,0-20.2,4-26.1,12
			c-5.9,8-8.85,20.15-8.85,36.45c0,16.2,2.97,28.2,8.93,36c5.95,7.8,14.67,11.7,26.17,11.7
			C1363.34,536.69,1371.91,532.79,1377.66,524.99z"/>
		<path class="st4" d="M1459.86,433.04c1.95,0,4.12,0.03,6.53,0.08c2.4,0.05,4.6,0.07,6.6,0.07c2,0,3.35,0,4.05,0
			c13.9,0.1,25.12,2.23,33.67,6.38c8.55,4.15,14.8,10.23,18.75,18.23c3.95,8,5.92,17.95,5.92,29.85c0,12.8-2.17,23.4-6.53,31.8
			c-4.35,8.4-10.95,14.65-19.8,18.75c-8.85,4.1-20.13,6.15-33.83,6.15h-19.2c-1.2,0-1.8-0.65-1.8-1.95V434.84
			c0-0.6,0.15-1.05,0.45-1.35c0.3-0.3,0.8-0.45,1.5-0.45C1456.68,433.04,1457.91,433.04,1459.86,433.04z M1465.48,444.14v89.85
			c0,1,0.6,1.5,1.8,1.5h6.45c11.8,0,21.35-1.52,28.65-4.58c7.3-3.05,12.65-8.03,16.05-14.92c3.4-6.9,5.1-16,5.1-27.3
			c0-12.2-1.78-21.65-5.33-28.35c-3.55-6.7-8.95-11.42-16.2-14.17c-7.25-2.75-16.48-4.12-27.67-4.12h-7.35
			C1465.98,442.04,1465.48,442.74,1465.48,444.14z"/>
		<path class="st4" d="M1592.83,433.04h65.25c0.9,0,1.35,0.45,1.35,1.35l-0.15,6.15c0,1-0.5,1.5-1.5,1.5h-53.55
			c-1.2,0-1.8,0.55-1.8,1.65v38.55c0,1,0.55,1.5,1.65,1.5h40.65c0.9,0,1.35,0.45,1.35,1.35v6.3c0,0.4-0.08,0.7-0.22,0.9
			c-0.15,0.2-0.53,0.3-1.12,0.3h-40.8c-1,0-1.5,0.5-1.5,1.5v39.75c0,1,0.5,1.5,1.5,1.5h55.95c1.1,0,1.65,0.45,1.65,1.35v6.3
			c0,0.4-0.13,0.73-0.38,0.97c-0.25,0.25-0.63,0.38-1.12,0.38h-67.05c-1.2,0-1.8-0.6-1.8-1.8v-107.7
			C1591.18,433.64,1591.73,433.04,1592.83,433.04z"/>
		<path class="st4" d="M1790.98,543.52c-0.3,0.55-0.75,0.83-1.35,0.83h-8.25c-0.9,0-1.6-0.55-2.1-1.65l-20.25-48.45
			c-0.4-1.1-1.5-1.65-3.3-1.65h-28.35c-0.7,0-1.18,0.15-1.43,0.45c-0.25,0.3-0.38,0.7-0.38,1.2v48c0,1.4-0.65,2.1-1.95,2.1h-7.35
			c-0.8,0-1.33-0.15-1.58-0.45c-0.25-0.3-0.38-0.75-0.38-1.35v-107.7c0-1.2,0.55-1.8,1.65-1.8h40.5c11.4,0,20.25,2.38,26.55,7.12
			c6.3,4.75,9.45,11.83,9.45,21.22c0,5.8-1.1,10.68-3.3,14.62c-2.2,3.95-5.03,7.08-8.48,9.38c-3.45,2.3-6.93,3.95-10.42,4.95
			c-0.7,0.1-0.9,0.55-0.6,1.35l21.45,50.1C1791.33,542.39,1791.28,542.97,1790.98,543.52z M1773.51,478.87
			c4.85-3.35,7.27-8.78,7.27-16.28c0-7.1-2.1-12.35-6.3-15.75c-4.2-3.4-10.35-5.1-18.45-5.1h-28.5c-1.3,0-1.95,0.45-1.95,1.35v39.15
			c0,1.1,0.45,1.65,1.35,1.65h24.9C1761.43,483.89,1768.66,482.22,1773.51,478.87z"/>
	</g>
	<g id="Valdo_outlines" class="st0">
		<path class="st4" d="M952.73,137.03L820.11,407.15c-2.08,4.17-5.18,7.52-9.28,10.06s-8.63,3.81-13.57,3.81
			c-4.82,0-9.28-1.27-13.38-3.81s-7.26-5.89-9.47-10.06L641.99,137.03h56.84l98.44,201.76l98.83-201.76H952.73z"/>
		<path class="st4" d="M1170.31,347.19c0,7.03-1.24,14.62-3.71,22.75c-2.47,8.14-6.48,15.69-12.01,22.66
			c-5.54,6.97-12.76,12.79-21.68,17.48c-8.92,4.69-19.76,7.03-32.52,7.03h-91.6c-7.03,0-14.62-1.24-22.75-3.71
			c-8.14-2.47-15.69-6.48-22.66-12.01c-6.97-5.53-12.79-12.76-17.48-21.68c-4.69-8.92-7.03-19.76-7.03-32.52
			c0-7.03,1.24-14.65,3.71-22.85c2.47-8.2,6.48-15.79,12.01-22.75c5.53-6.96,12.76-12.79,21.68-17.48
			c8.92-4.69,19.76-7.03,32.52-7.03h91.6v48.44h-91.6c-6.9,0-12.24,2.12-16.02,6.35c-3.78,4.23-5.66,9.47-5.66,15.72
			c0,6.64,2.18,11.82,6.54,15.53c4.36,3.71,9.54,5.57,15.53,5.57h91.21c6.9,0,12.24-2.08,16.02-6.25c3.78-4.17,5.66-9.38,5.66-15.62
			v-70.9c0-6.64-2.05-11.91-6.15-15.82s-9.28-5.86-15.53-5.86H988.86v-48.24h111.52c7.03,0,14.62,1.24,22.75,3.71
			c8.14,2.48,15.69,6.48,22.66,12.01c6.96,5.54,12.79,12.76,17.48,21.68c4.69,8.92,7.03,19.76,7.03,32.52V347.19z"/>
		<path class="st4" d="M1306.44,417.11h-22.66c-7.29,0-15.07-1.24-23.34-3.71c-8.27-2.47-15.99-6.54-23.14-12.21
			c-7.16-5.66-13.09-13.02-17.77-22.07c-4.69-9.05-7.03-20.15-7.03-33.3v-229.1h50.78v229.1c0,6.25,1.95,11.23,5.86,14.94
			s8.79,5.57,14.65,5.57h22.66V417.11z"/>
		<path class="st4" d="M1570.7,345.82c0,8.72-1.11,16.57-3.32,23.54c-2.22,6.97-5.15,13.09-8.79,18.36
			c-3.65,5.27-7.88,9.77-12.7,13.48c-4.82,3.71-9.86,6.74-15.14,9.08s-10.61,4.07-16.02,5.18c-5.4,1.11-10.52,1.66-15.33,1.66h-91.6
			c-8.72,0-16.54-1.1-23.44-3.32c-6.9-2.21-12.99-5.18-18.26-8.89s-9.77-7.97-13.48-12.79c-3.71-4.82-6.74-9.86-9.08-15.14
			s-4.07-10.61-5.18-16.02c-1.11-5.4-1.66-10.45-1.66-15.14v-68.75c0-13.02,2.37-24.05,7.13-33.11
			c4.75-9.05,10.67-16.41,17.77-22.07c7.1-5.66,14.81-9.73,23.14-12.21c8.33-2.47,16.02-3.71,23.05-3.71h91.6v50.78h-91.21
			c-6.77,0-11.91,1.73-15.43,5.18c-3.52,3.45-5.27,8.5-5.27,15.14v68.36c0,6.9,1.72,12.11,5.18,15.62c3.45,3.52,8.5,5.27,15.14,5.27
			h91.6c6.9,0,12.04-1.76,15.43-5.27c3.38-3.52,5.08-8.59,5.08-15.23v-229.1h50.78V345.82z"/>
		<path class="st4" d="M1848.82,345.82c0,8.72-1.11,16.57-3.32,23.54c-2.22,6.97-5.15,13.09-8.79,18.36
			c-3.65,5.27-7.88,9.77-12.7,13.48c-4.82,3.71-9.86,6.74-15.14,9.08s-10.61,4.07-16.02,5.18c-5.4,1.11-10.52,1.66-15.33,1.66h-91.6
			c-7.03,0-14.72-1.24-23.05-3.71c-8.33-2.47-16.05-6.54-23.14-12.21c-7.1-5.66-13.02-13.02-17.77-22.07
			c-4.75-9.05-7.13-20.15-7.13-33.3v-68.75c0-13.02,2.37-24.05,7.13-33.11c4.75-9.05,10.67-16.41,17.77-22.07
			c7.1-5.66,14.81-9.73,23.14-12.21c8.33-2.47,16.02-3.71,23.05-3.71h91.6c13.02,0,24.09,2.34,33.2,7.03
			c9.11,4.69,16.47,10.58,22.07,17.68c5.6,7.1,9.67,14.81,12.21,23.14c2.54,8.33,3.81,16.08,3.81,23.24V345.82z M1798.04,277.46
			c0-7.03-1.76-12.24-5.27-15.62c-3.52-3.38-8.59-5.08-15.23-5.08h-91.21c-6.77,0-11.91,1.73-15.43,5.18
			c-3.52,3.45-5.27,8.5-5.27,15.14v68.75c0,6.64,1.76,11.72,5.27,15.23s8.66,5.27,15.43,5.27h91.21c6.9,0,12.04-1.76,15.43-5.27
			c3.38-3.52,5.08-8.59,5.08-15.23V277.46z"/>
	</g>
	<g>
	</g>
	<g>
	</g>
	<g>
	</g>
	<g>
	</g>
	<g>
	</g>
	<g>
	</g>
</g>
</svg>
